<?xml version="1.0" encoding="utf-8"?>
<!-- Generator: Adobe Illustrator 27.0.0, SVG Export Plug-In . SVG Version: 6.00 Build 0)  -->
<svg version="1.1" id="Pictogram" xmlns="http://www.w3.org/2000/svg" xmlns:xlink="http://www.w3.org/1999/xlink" x="0px" y="0px"
	 viewBox="0 0 144 144" style="enable-background:new 0 0 144 144;" xml:space="preserve">
<style type="text/css">
	.st0{fill:none;}
</style>
<g>
	<rect y="134.9" width="144" height="2.7"/>
	<path d="M55.3,113.3c3.5,0,6.3,2.8,6.3,6.3c0,3.5-2.8,6.3-6.3,6.3c-3.5,0-6.3-2.8-6.3-6.3C49,116.1,51.8,113.3,55.3,113.3
		 M55.3,110.6c-5,0-9,4-9,9c0,5,4,9,9,9s9-4,9-9C64.3,114.6,60.2,110.6,55.3,110.6L55.3,110.6z"/>
	<g>
		<path d="M29.2,96.2l25.4-25.4l-7.3-7.3L22,88.9c-2,2-2,5.3,0,7.3C24,98.2,27.2,98.2,29.2,96.2z"/>
		<path d="M56.5,72.5L9.2,119.8c-2,2-2,5.3,0,7.3c2,2,5.3,2,7.3,0l47.2-47.2L56.5,72.5z"/>
		<path d="M83.6,32.1c2.5,0,4.7-1,6.4-2.6c1.6-1.6,2.6-3.9,2.6-6.4s-1-4.7-2.6-6.4c-1.6-1.6-3.9-2.6-6.4-2.6c-2.5,0-4.7,1-6.4,2.6
			c-1.6,1.6-2.6,3.9-2.6,6.4s1,4.7,2.6,6.4S81.1,32.1,83.6,32.1z"/>
		<path d="M131.2,36H49.5c-1.3,0-2.6,0.5-3.6,1.5L31.4,52c-2,2-2,5.3,0,7.3c2,2,5.3,2,7.3,0l13-13h12.9L51,59.8l16.3,16.4l29.9-29.9
			h33.9c2.8,0,5.1-2.3,5.1-5.1S134,36,131.2,36z"/>
	</g>
</g>
<rect class="st0" width="144" height="144"/>
</svg>
