<?xml version="1.0" encoding="iso-8859-1"?>
<!-- Uploaded to: SVG Repo, www.svgrepo.com, Generator: SVG Repo Mixer Tools -->
<!DOCTYPE svg PUBLIC "-//W3C//DTD SVG 1.1//EN" "http://www.w3.org/Graphics/SVG/1.1/DTD/svg11.dtd">
<svg fill="#000000" version="1.1" id="Capa_1" xmlns="http://www.w3.org/2000/svg" xmlns:xlink="http://www.w3.org/1999/xlink" 
	 width="800px" height="800px" viewBox="0 0 552.863 552.862"
	 xml:space="preserve">
<g>
	<g>
		<path d="M293.293,399.087c3.566,3.242,8.166,4.982,12.852,4.982c3.711,0,7.459-1.071,10.748-3.318l72.561-49.447
			c3.863-2.64,6.637-6.599,7.774-11.141l13.168-52.364c2.17,2.362,3.49,4.198,3.317,5.087l13.685,38.91l-60.11,46.924
			c-4.456,3.48-7.535,8.414-8.692,13.951L331.123,524.05c-2.696,12.929,5.584,25.59,18.503,28.296
			c1.646,0.344,3.3,0.507,4.916,0.507c11.082,0,21.018-7.746,23.38-19.02l25.675-122.812l15.233-11.896l-3.414,6.234
			c-3.949,7.22-3.911,15.96,0.105,23.142l62.663,112.11c4.38,7.832,12.508,12.25,20.895,12.25c3.949,0,7.946-0.976,11.637-3.041
			c11.523-6.436,15.645-21.009,9.199-32.532l-56.208-100.568l38.174-69.749c1.138-2.075,1.816-4.255,2.295-6.455
			c1.052-1.529,1.808-3.289,1.808-5.287v-55.052c0-5.288-3.223-12.383-7.191-15.874l-90.461-80.373
			c-3.969-3.49-12.021-1.884-15.023,2.458l-2.543,4.667c-1.53,1.262-2.936,2.706-4.055,4.475l-50.892,80.574l-58.762,44.083
			c-4.609,3.452-7.124,8.597-7.516,13.913l-16.505-12.269c-3.194-2.372-7.057-3.691-11.044-3.768l-68.697-1.311l17.71-55.959
			l56.772,11.198c1.559,0.306,3.108,0.459,4.647,0.459c10.356,0,19.794-6.77,22.883-17.031l22.511-74.932
			c2.391,5.221,5.584,10.002,9.581,14.019c29.118-12.068,54.507-59.24,60.454-70.982c0.028,0.459,0.144,0.918,0.363,1.358
			c0.88,1.778,3.031,2.486,4.801,1.616c2.82-1.396,4.389-3.729,5.307-6.33c3.185-0.736,9.668,1.979,13.655,4.571
			c1.654,1.081,3.873,0.612,4.963-1.042c1.062-1.625,0.612-3.863-1.042-4.953c-1.846-1.205-9.562-5.91-16.505-5.833
			c-0.086-4.006-0.928-7.487-1.138-8.252c-0.517-1.913-2.486-3.022-4.408-2.506c-1.32,0.364-2.267,1.416-2.554,2.668
			c-0.124,0.555-0.124,1.147,0.038,1.731c0.976,3.529,1.903,11.838-1.511,13.541c-0.306,0.153-0.535,0.383-0.774,0.603
			c-7.793-5.374-17.146-8.654-27.329-8.654c-9.42,0-18.15,2.802-25.59,7.469l3.175-10.596c3.796-12.642-3.376-25.972-16.018-29.777
			c-12.622-3.787-25.971,3.366-29.777,16.017L235.736,220.9l-52.488-10.347l47.822-59.728c6.914-8.635,7-20.894,0.201-29.625
			L144.118,9.224c-8.109-10.414-23.112-12.297-33.545-4.179c-10.413,8.109-12.288,23.122-4.179,33.545l75.573,97.088l-60.674,75.764
			c-2.553,3.194-4.054,6.856-4.743,10.614l-15.242,39.713c-2.209,4.8-4.849,12.88-5.862,18.064l-1.941,15.396l-24.757-34.894
			l7.392-76.481c1.014-10.519-6.684-19.861-17.193-20.875c-10.471-1.052-19.861,6.685-20.875,17.193l-8.081,83.586
			c-0.44,4.581,0.784,9.161,3.433,12.91l48.902,68.936c2.133,3.002,5.011,5.106,8.176,6.445c1.271,0.87,2.735,1.501,4.542,1.521
			l2.353,0.028c0.182,0.01,0.363,0.066,0.555,0.066c0.115,0,0.229-0.048,0.354-0.057l45.747,0.573
			c0.947,0.163,1.894,0.325,2.888,0.345l88.205,1.683l56.648,42.095C292.26,398.657,292.805,398.791,293.293,399.087z
			 M300.006,350.797l61.572-46.196c1.865-1.396,3.452-3.117,4.695-5.088l2.879-4.561l-7.249,28.84l-55.434,37.772l-11.179-8.311
			C296.927,352.633,298.543,351.896,300.006,350.797z"/>
		<path d="M215.952,511.122l2.773-6.608c-36.127-15.156-100.588,12.269-103.323,13.445l2.84,6.579
			C118.883,524.271,182.607,497.17,215.952,511.122z"/>
		<path d="M118.739,466.063c26.201,5.173,51.657-11.857,56.83-38.098c0.507-2.572,0.631-5.125,0.727-7.669
			c-0.401-0.028-0.793-0.076-1.186-0.239c-27.292-11.417-74.702,4.581-91.446,10.939c0.727-0.449,1.32-1.128,1.587-2.018
			c0.564-1.902-0.526-3.892-2.419-4.456c-0.555-0.162-1.081-0.22-1.616-0.287c17.27-6.617,64.642-22.538,94.697-11.446
			c-2.467-20.225-17.404-37.514-38.47-41.663c-26.211-5.164-51.657,11.876-56.83,38.116c-0.995,5.067-0.928,10.04-0.354,14.898
			c-2.018-0.048-3.901,0.497-5.623,1.396c-2.831-1.625-5.738-8.032-6.875-12.642c-0.478-1.922-2.419-3.098-4.351-2.62
			c-1.884,0.459-3.079,2.42-2.61,4.342c0.526,2.142,2.974,10.844,8.099,15.52c-2.667,2.993-4.417,6.11-4.791,6.809
			c-0.918,1.75-0.229,3.911,1.521,4.829c1.205,0.631,2.62,0.507,3.682-0.21c0.468-0.315,0.87-0.766,1.157-1.291
			c1.693-3.242,6.684-9.955,10.337-8.874c0.612,0.182,1.214,0.144,1.788,0.01c-0.268,0.104-0.603,0.229-0.851,0.324
			C86.552,448.669,100.284,462.42,118.739,466.063z"/>
		<path d="M81.723,532.312c1.53-1.263,1.75-3.52,0.497-5.05c-1.989-2.429-4.619-3.442-7.354-3.758
			c-1.435-2.936-0.239-9.868,1.396-14.324c0.679-1.855-0.268-3.921-2.132-4.609c-1.817-0.679-3.901,0.268-4.59,2.123
			c-0.765,2.075-3.625,10.652-1.999,17.395c-3.892,0.984-7.085,2.581-7.793,2.954c-1.75,0.938-2.391,3.108-1.454,4.849
			c0.641,1.205,1.884,1.894,3.165,1.894c0.574,0,1.147-0.144,1.683-0.421c3.223-1.731,11.111-4.494,13.531-1.55
			C77.927,533.354,80.183,533.564,81.723,532.312z"/>
		<path d="M313.576,199.681c7.946,5.699,17.604,9.142,28.133,9.142c26.708,0,48.396-21.64,48.396-48.386
			c0-13.837-5.871-26.22-15.166-35.037C370.396,134.656,345.122,183.883,313.576,199.681z"/>
	</g>
</g>
</svg>